#!OML:ASF C:\Vicon Data\Big\jianyuan-13\jianyuan\Session 1\Capture.male.ASF
:FULLY-SPECIFIED
:DEGREES
251
root -5.533934 17.291000 -8.806090 6.531608 10.363250 3.028184
lowerback -9.147829 -1.583482 -4.862225 
upperback 2.921602 -1.474053 -0.511968 
thorax 8.366298 -0.954405 1.951634 
lowerneck -6.906700 -2.507751 2.389498 
upperneck 1.026627 -3.467590 -2.512831 
head 1.404162 -1.773972 -1.306107 
rclavicle 0.000000 0.000000 
rhumerus -43.092612 -15.354883 -78.858056 
rradius 28.589361 
rwrist 29.978421 
rhand -16.349545 -15.683809 
rfingers 0.000000 
rthumb 9.862910 -45.432772 
lclavicle 0.000000 0.000000 
lhumerus -20.763609 7.567409 92.010772 
lradius 37.101151 
lwrist -32.522318 
lhand -18.214497 2.306612 
lfingers 0.000000 
lthumb 8.063327 32.132762 
rfemur -31.699961 5.721806 12.830610 
rtibia 22.491497 
rfoot -8.446639 -10.341715 
rtoes -32.219400 
lfemur 3.826131 -3.993001 -27.547689 
ltibia 11.872715 
lfoot -15.907901 2.222690 
ltoes -31.142515 
252
root -5.536235 17.288782 -8.744000 6.622578 10.448049 2.997070
lowerback -9.205468 -1.577043 -4.813942 
upperback 2.896022 -1.469981 -0.496841 
thorax 8.370535 -0.949987 1.940482 
lowerneck -6.919167 -2.538580 2.406644 
upperneck 0.986057 -3.511955 -2.475371 
head 1.392355 -1.795341 -1.298026 
rclavicle 0.000000 0.000000 
rhumerus -43.029092 -15.162160 -78.975430 
rradius 28.598887 
rwrist 29.641354 
rhand -16.439918 -15.738460 
rfingers 0.000000 
rthumb 9.775751 -45.491597 
lclavicle 0.000000 0.000000 
lhumerus -20.788290 7.245904 92.122605 
lradius 37.299558 
lwrist -32.182346 
lhand -18.319773 2.326318 
lfingers 0.000000 
lthumb 7.961686 32.156417 
rfemur -31.616221 5.621977 12.948418 
rtibia 22.611931 
rfoot -8.054208 -10.170139 
rtoes -32.131469 
lfemur 3.876370 -3.977282 -27.451199 
ltibia 12.032196 
lfoot -15.981923 2.201628 
ltoes -31.871121 
253
root -5.540368 17.288241 -8.681434 6.679735 10.573068 2.952581
lowerback -9.229999 -1.578969 -4.772771 
upperback 2.878153 -1.479612 -0.461211 
thorax 8.365747 -0.953220 1.953399 
lowerneck -6.869638 -2.571339 2.346111 
upperneck 0.900007 -3.553774 -2.366920 
head 1.357179 -1.814081 -1.251760 
rclavicle 0.000000 0.000000 
rhumerus -43.038410 -15.197747 -78.957617 
rradius 28.625875 
rwrist 29.802399 
rhand -16.409614 -15.703844 
rfingers 0.000000 
rthumb 9.804984 -45.455547 
lclavicle 0.000000 0.000000 
lhumerus -20.829074 7.005730 92.241056 
lradius 37.517385 
lwrist -31.957489 
lhand -18.279913 2.308221 
lfingers 0.000000 
lthumb 8.000200 32.136770 
rfemur -31.524993 5.500840 13.092014 
rtibia 22.801824 
rfoot -7.602509 -10.217342 
rtoes -32.011112 
lfemur 4.005343 -4.059079 -27.350470 
ltibia 12.061852 
lfoot -15.909219 2.282967 
ltoes -32.126690 
254
root -5.543420 17.286360 -8.618837 6.712267 10.701138 3.012482
lowerback -9.220452 -1.622391 -4.818660 
upperback 2.890976 -1.532096 -0.461536 
thorax 8.379611 -0.981558 1.969970 
lowerneck -6.876076 -2.594180 2.356004 
upperneck 0.815816 -3.586359 -2.361596 
head 1.330366 -1.830389 -1.251389 
rclavicle 0.000000 0.000000 
rhumerus -42.948401 -15.183859 -78.965601 
rradius 28.596269 
rwrist 29.803475 
rhand -16.321157 -15.692191 
rfingers 0.000000 
rthumb 9.890300 -45.439921 
lclavicle 0.000000 0.000000 
lhumerus -20.901155 6.692616 92.323231 
lradius 37.854057 
lwrist -31.639135 
lhand -18.250266 2.425315 
lfingers 0.000000 
lthumb 8.028804 32.252796 
rfemur -31.413183 5.334070 13.132014 
rtibia 23.028058 
rfoot -7.063798 -10.311584 
rtoes -32.026417 
lfemur 4.260614 -4.077894 -27.354549 
ltibia 11.932965 
lfoot -15.761149 2.310478 
ltoes -32.162242 
255
root -5.546204 17.287691 -8.552493 6.817387 10.773157 3.062459
lowerback -9.293264 -1.627553 -4.855828 
upperback 2.865280 -1.530268 -0.467408 
thorax 8.395110 -0.982205 1.983713 
lowerneck -6.862378 -2.599001 2.371907 
upperneck 0.744486 -3.595046 -2.348675 
head 1.304813 -1.834443 -1.248739 
rclavicle 0.000000 0.000000 
rhumerus -42.919076 -15.034123 -79.040910 
rradius 28.668027 
rwrist 29.567266 
rhand -16.288212 -15.730674 
rfingers 0.000000 
rthumb 9.922138 -45.476874 
lclavicle 0.000000 0.000000 
lhumerus -20.932803 6.495309 92.403474 
lradius 37.993681 
lwrist -31.539098 
lhand -18.217088 2.362279 
lfingers 0.000000 
lthumb 8.060826 32.188563 
rfemur -31.404541 5.293878 13.119017 
rtibia 23.263592 
rfoot -6.534277 -10.520418 
rtoes -31.781627 
lfemur 4.534071 -4.079474 -27.351370 
ltibia 11.662724 
lfoot -15.631260 2.409773 
ltoes -32.726200 
256
root -5.552112 17.291930 -8.487483 6.937287 10.860105 2.961570
lowerback -9.396995 -1.609280 -4.778747 
upperback 2.845779 -1.514381 -0.412939 
thorax 8.432008 -0.972436 1.999071 
lowerneck -6.889302 -2.643837 2.392433 
upperneck 0.660678 -3.658572 -2.327521 
head 1.281009 -1.865950 -1.246502 
rclavicle 0.000000 0.000000 
rhumerus -42.904351 -15.264679 -78.950245 
rradius 28.653425 
rwrist 29.637839 
rhand -16.452213 -15.683758 
rfingers 0.000000 
rthumb 9.763864 -45.437417 
lclavicle 0.000000 0.000000 
lhumerus -20.937461 6.189901 92.527535 
lradius 38.160660 
lwrist -31.286287 
lhand -18.253618 2.313302 
lfingers 0.000000 
lthumb 8.025585 32.140952 
rfemur -31.450422 5.453351 13.163640 
rtibia 23.432170 
rfoot -6.077440 -10.908733 
rtoes -30.759420 
lfemur 4.732418 -4.114205 -27.175380 
ltibia 11.413820 
lfoot -15.464424 2.556509 
ltoes -33.422349 
257
root -5.558104 17.293679 -8.423056 7.007933 10.925874 2.971456
lowerback -9.421957 -1.620868 -4.806070 
upperback 2.846252 -1.525945 -0.400182 
thorax 8.449252 -0.980172 2.025446 
lowerneck -6.918500 -2.659026 2.516250 
upperneck 0.576745 -3.688426 -2.413933 
head 1.255397 -1.882493 -1.295247 
rclavicle 0.000000 0.000000 
rhumerus -42.835274 -15.317170 -78.930013 
rradius 28.601616 
rwrist 29.951410 
rhand -16.517820 -15.609255 
rfingers 0.000000 
rthumb 9.700607 -45.365889 
lclavicle 0.000000 0.000000 
lhumerus -20.934337 5.953975 92.603119 
lradius 38.316035 
lwrist -31.060922 
lhand -18.304455 2.396620 
lfingers 0.000000 
lthumb 7.976516 32.226095 
rfemur -31.388273 5.372597 13.244711 
rtibia 23.522611 
rfoot -5.486842 -10.997011 
rtoes -30.072569 
lfemur 4.931920 -4.141273 -27.120882 
ltibia 11.318429 
lfoot -15.346538 2.629037 
ltoes -33.791590 
258
root -5.561437 17.298343 -8.356901 7.110074 11.010248 2.855356
lowerback -9.508575 -1.627385 -4.653004 
upperback 2.806578 -1.553636 -0.359276 
thorax 8.454436 -0.986281 1.977025 
lowerneck -6.869901 -2.662504 2.536857 
upperneck 0.473535 -3.695013 -2.413582 
head 1.213416 -1.885685 -1.295955 
rclavicle 0.000000 0.000000 
rhumerus -42.798088 -15.203087 -78.983220 
rradius 28.679336 
rwrist 29.519019 
rhand -16.417298 -15.765219 
rfingers 0.000000 
rthumb 9.797603 -45.517304 
lclavicle 0.000000 0.000000 
lhumerus -20.953377 5.875289 92.654324 
lradius 38.345915 
lwrist -31.199320 
lhand -18.363927 2.440411 
lfingers 0.000000 
lthumb 7.919125 32.272122 
rfemur -31.377345 5.170681 13.501545 
rtibia 23.627503 
rfoot -5.147282 -10.841898 
rtoes -29.846608 
lfemur 5.095928 -4.213783 -26.924456 
ltibia 11.201014 
lfoot -15.222285 2.716869 
ltoes -34.300483 
259
root -5.569171 17.305558 -8.292165 7.186358 11.072402 2.817898
lowerback -9.532063 -1.632152 -4.630717 
upperback 2.794487 -1.563994 -0.332816 
thorax 8.455759 -0.990770 1.990553 
lowerneck -6.860394 -2.691903 2.497101 
upperneck 0.372834 -3.734247 -2.317056 
head 1.180527 -1.903698 -1.257601 
rclavicle 0.000000 0.000000 
rhumerus -42.764474 -15.376853 -78.932870 
rradius 28.696290 
rwrist 29.577488 
rhand -16.590709 -15.819276 
rfingers 0.000000 
rthumb 9.630246 -45.579104 
lclavicle 0.000000 0.000000 
lhumerus -20.990521 5.714711 92.687542 
lradius 38.480147 
lwrist -31.100112 
lhand -18.362267 2.278334 
lfingers 0.000000 
lthumb 7.920682 32.109927 
rfemur -31.378955 5.262634 13.530939 
rtibia 23.793362 
rfoot -5.349337 -10.796620 
rtoes -29.482745 
lfemur 5.344035 -4.268006 -26.804127 
ltibia 10.953567 
lfoot -15.000659 2.817124 
ltoes -34.702166 
260
root -5.575586 17.312727 -8.225728 7.219291 11.121587 2.784726
lowerback -9.525196 -1.665159 -4.624829 
upperback 2.791597 -1.612624 -0.292434 
thorax 8.453270 -1.015236 2.022046 
lowerneck -6.855808 -2.683709 2.520566 
upperneck 0.276600 -3.726097 -2.325114 
head 1.148779 -1.899936 -1.262194 
rclavicle 0.000000 0.000000 
rhumerus -42.713637 -15.111701 -78.989438 
rradius 28.759197 
rwrist 29.528410 
rhand -16.547957 -15.876707 
rfingers 0.000000 
rthumb 9.671516 -45.634712 
lclavicle 0.000000 0.000000 
lhumerus -21.079757 5.561934 92.726683 
lradius 38.683879 
lwrist -30.918769 
lhand -18.348852 2.365309 
lfingers 0.000000 
lthumb 7.933683 32.196463 
rfemur -31.341072 5.205001 13.612085 
rtibia 24.002935 
rfoot -5.578190 -10.666539 
rtoes -28.689354 
lfemur 5.697336 -4.330271 -26.707648 
ltibia 10.628454 
lfoot -14.753027 2.950204 
ltoes -35.039747 
261
root -5.582699 17.317723 -8.158993 7.329005 11.155490 2.792664
lowerback -9.594868 -1.675375 -4.625007 
upperback 2.771595 -1.623817 -0.280908 
thorax 8.473279 -1.021000 2.031226 
lowerneck -6.851799 -2.693239 2.481859 
upperneck 0.171210 -3.738008 -2.270474 
head 1.115568 -1.905185 -1.236664 
rclavicle 0.000000 0.000000 
rhumerus -42.625100 -15.330068 -78.852602 
rradius 28.609632 
rwrist 29.794543 
rhand -16.579040 -15.693485 
rfingers 0.000000 
rthumb 9.641520 -45.452850 
lclavicle 0.000000 0.000000 
lhumerus -21.088915 5.450738 92.763368 
lradius 38.692802 
lwrist -30.948463 
lhand -18.443082 2.434518 
lfingers 0.000000 
lthumb 7.842701 32.269047 
rfemur -31.394480 4.918662 13.795043 
rtibia 24.204566 
rfoot -5.297688 -10.534543 
rtoes -28.596539 
lfemur 5.968728 -4.441912 -26.648903 
ltibia 10.326787 
lfoot -14.526040 3.129879 
ltoes -35.549083 
